<?xml version="1.0" encoding="UTF-8"?>
<svg id="Layer_2" data-name="Layer 2" xmlns="http://www.w3.org/2000/svg" viewBox="0 0 399.28 222.13">
  <defs>
    <style>
      .cls-1 {
        font-size: 150px;
      }

      .cls-1, .cls-2 {
        font-family: ProggyCleanTT, ProggyCleanTT;
      }

      .cls-3 {
        fill: lime;
      }

      .cls-4 {
        fill: #00dcf2;
      }

      .cls-5, .cls-2 {
        fill: #e8db61;
      }

      .cls-6, .cls-7 {
        fill: #fff;
      }

      .cls-8 {
        fill: #ff0;
      }

      .cls-9 {
        fill: #ff0071;
      }

      .cls-10 {
        fill: #fd7d00;
      }

      .cls-11 {
        fill: #b67fff;
      }

      .cls-2 {
        font-size: 29.8px;
      }

      .cls-7 {
        stroke-width: 0px;
      }
    </style>
  </defs>
  <g id="Layer_1-2" data-name="Layer 1">
    <g>
      <text class="cls-1" transform="translate(136.78 194.01)"><tspan class="cls-4" x="0" y="0">C</tspan><tspan class="cls-9" x="65.62" y="0">O</tspan><tspan class="cls-3" x="131.25" y="0">D</tspan><tspan class="cls-8" x="196.88" y="0">E</tspan></text>
      <g>
        <text class="cls-1" transform="translate(0 112.5)"><tspan class="cls-4" x="0" y="0">C</tspan><tspan class="cls-11" x="65.62" y="0">A</tspan><tspan class="cls-6" x="131.25" y="0">M</tspan><tspan class="cls-5" x="196.88" y="0">P</tspan><tspan class="cls-10" x="262.5" y="0">U</tspan><tspan class="cls-6" x="328.12" y="0">S</tspan></text>
        <g>
          <text class="cls-2" transform="translate(89.97 159.75)"><tspan x="0" y="0">&lt;/&gt;</tspan></text>
          <g id="XUXexd.tif">
            <g>
              <path class="cls-7" d="M137.88,150.3c.83.12,1.66.24,2.49.37l-2.43,14.66c-.83-.15-1.65-.31-2.48-.46-.1-.16-.2-.32-.3-.48-.02-4.7.73-9.28,2.28-13.73.15-.12.29-.24.44-.36Z"/>
              <path class="cls-7" d="M122.04,125.03c-.15.83-.31,1.65-.46,2.48-.16.1-.32.2-.48.3-4.7.02-9.28-.73-13.73-2.28-.12-.15-.24-.29-.36-.44.12-.83.24-1.66.37-2.49l14.66,2.44Z"/>
              <path class="cls-7" d="M57.75,194.67q-4.89-.81-4.07-5.7c.79-.48,1.56-.43,2.3.1.71,1.19,1.49,2.33,2.42,3.37.27.88.06,1.63-.64,2.23Z"/>
              <path class="cls-7" d="M56.17,189.34c-.83-.12-1.66-.24-2.49-.37l.81-4.89c.83.15,1.65.31,2.48.46.09.13.17.27.26.4.3,1.45.08,2.82-.68,4.11-.12.1-.25.19-.38.29Z"/>
              <path class="cls-7" d="M57.75,194.67c.15-.83.31-1.65.46-2.48.13-.09.27-.17.4-.26,1.46-.3,2.82-.08,4.11.68.1.12.19.25.29.38-.12.83-.24,1.66-.37,2.49l-4.89-.81Z"/>
              <path class="cls-7" d="M112.67,181.16c.07,1.94-.61,2.63-2.71,2.16-3.29-.75-6.64-1.3-9.99-1.66-2.14-.23-2.56-1.1-1.87-2.92.16-.1.32-.2.48-.3,4.7-.02,9.28.73,13.73,2.28.12.15.24.29.36.44Z"/>
              <path class="cls-7" d="M93.62,175.48c-2.47-.41-4.94-.82-7.41-1.23-.09-.14-.18-.28-.26-.42-.31-1.53-.05-2.96.73-4.31.23-.25.51-.41.85-.48,2.65.59,4.07,3.13,6.5,4.14.59.24.35,1.31-.03,1.98-.12.11-.25.22-.37.32Z"/>
              <path class="cls-7" d="M123.25,177.9c.04,1.83-.52,2.86-2.62,2.14-.85-.29-1.77-.35-2.66-.51-.08-.16-.17-.31-.25-.47.68-2.76,1.51-3.01,5.2-1.57.11.14.22.28.34.42Z"/>
              <path class="cls-7" d="M117.96,179.52c.03,1.83-.52,2.87-2.63,2.14-.85-.29-1.78-.35-2.67-.51,0,0,.08.1.08.1-.52-1.04-.52-2.12.58-2.64,1.73-.81,3.37-.41,4.71,1.01l-.07-.1Z"/>
              <path class="cls-7" d="M98.1,178.74c-.9-.13-1.79-.38-2.69-.38-2.23,0-2.42-1.16-1.8-2.88,0,0-.1.07-.1.07,1.73-.91,3.41-.76,4.78.57.88.85.52,1.87-.3,2.69l.1-.07Z"/>
              <path class="cls-7" d="M135.46,164.86c-.13.9-.38,1.79-.38,2.69,0,2.22-1.15,2.43-2.87,1.79-.1-.17-.2-.33-.3-.5-.21-4.2.75-5.23,3.62-3.88l-.07-.1Z"/>
              <path class="cls-7" d="M86.2,174.25c-.13.9-.38,1.79-.38,2.69,0,2.22-1.15,2.43-2.87,1.79-.09-.15-.19-.31-.28-.46-.29-1.68-.17-3.25,1.17-4.51.96-.42,1.77-.21,2.44.59l-.07-.1Z"/>
              <path class="cls-7" d="M132.21,169.34c-.13.9-.38,1.79-.38,2.69,0,2.22-1.15,2.43-2.87,1.79-.1-.17-.2-.33-.3-.5-.21-4.2.75-5.23,3.62-3.88l-.07-.1Z"/>
              <path class="cls-7" d="M82.95,178.73c.11,2.16-.83,2.85-2.85,2.04-.08-.16-.17-.33-.25-.49.51-2.52.9-2.7,3.17-1.44l-.07-.1Z"/>
              <path class="cls-7" d="M128.95,173.82c.11,2.16-.83,2.85-2.85,2.04-.08-.16-.17-.33-.25-.49.51-2.52.9-2.7,3.17-1.44l-.07-.1Z"/>
              <path class="cls-7" d="M80.1,180.76c.11,2.16-.83,2.86-2.85,2.04-.08-.16-.17-.33-.25-.49.51-2.52.9-2.7,3.17-1.44l-.07-.1Z"/>
              <path class="cls-7" d="M77.25,182.8c.11,2.16-.83,2.86-2.85,2.04-.08-.16-.17-.33-.25-.49.51-2.52.9-2.7,3.17-1.44l-.07-.1Z"/>
              <path class="cls-7" d="M74.4,184.84c.11,2.16-.83,2.86-2.85,2.04-.08-.16-.17-.33-.25-.49.51-2.52.9-2.7,3.17-1.44l-.07-.1Z"/>
              <path class="cls-7" d="M71.55,186.87c.11,2.16-.83,2.86-2.85,2.04-.08-.16-.17-.33-.25-.49.51-2.52.9-2.7,3.17-1.44l-.07-.1Z"/>
              <path class="cls-7" d="M68.71,188.91c.11,2.16-.83,2.86-2.85,2.04-.08-.16-.17-.33-.25-.49.51-2.52.9-2.7,3.17-1.44l-.07-.1Z"/>
              <path class="cls-7" d="M65.86,190.95c.11,2.17-.84,2.85-2.85,2.04,0,0,.07.1.07.1-.49-.98-.53-1.94.49-2.57.87-.53,1.69-.17,2.35.53l-.07-.1Z"/>
              <path class="cls-7" d="M126.1,175.86c.11,2.17-.84,2.85-2.85,2.04,0,0,.07.1.07.1-.49-.98-.53-1.94.49-2.57.87-.53,1.69-.17,2.35.53l-.07-.1Z"/>
              <path class="cls-7" d="M81.8,155.95c-1.94.07-2.63-.61-2.16-2.71.75-3.29,1.3-6.64,1.66-9.99.23-2.14,1.1-2.56,2.92-1.87.1.16.2.32.3.48.02,4.7-.73,9.28-2.28,13.73-.15.12-.29.24-.44.36Z"/>
              <path class="cls-7" d="M82.2,168.65c.41-2.47.82-4.94,1.23-7.41.15-.08.3-.16.45-.24.41-.07.84-.12,1.19.1,1.27.82,2.64,6.85,1.92,8.35l.1-.07c-1.59.91-3.09.52-4.56-.31-.11-.14-.22-.28-.34-.42Z"/>
              <path class="cls-7" d="M101.72,126.72c-.04-1.84.53-2.86,2.63-2.14.85.29,1.77.35,2.67.51,0,0-.08-.1-.08-.1.35,3.15-.94,3.73-4.85,2.18-.12-.15-.25-.3-.37-.45Z"/>
              <path class="cls-7" d="M96.43,128.35c-.04-1.84.53-2.86,2.63-2.14.85.29,1.77.35,2.67.51,0,0-.07-.1-.07-.1.35,3.15-.94,3.73-4.85,2.18-.12-.15-.25-.3-.37-.45Z"/>
              <path class="cls-7" d="M76.91,170.29c-.04-1.84.53-2.86,2.63-2.14.85.29,1.77.35,2.67.51,0,0-.07-.1-.07-.1.54.89.48,1.72-.22,2.49-1.62.88-3.15.48-4.65-.34-.12-.14-.23-.28-.34-.42Z"/>
              <path class="cls-7" d="M87.48,136.9c.13-.9.38-1.79.38-2.69,0-2.22,1.15-2.42,2.87-1.79.09.15.19.3.28.46.17,3.95-.33,4.66-3.17,4.41-.12-.13-.24-.26-.36-.39Z"/>
              <path class="cls-7" d="M83.44,161.24c-1.83.03-2.87-.52-2.14-2.63.29-.85.35-1.77.51-2.67,0,0-.1.07-.1.07,1.04-.52,2.12-.52,2.64.58.81,1.73.41,3.37-1.01,4.71l.1-.07Z"/>
              <path class="cls-7" d="M84.22,141.38c.13-.9.38-1.79.38-2.69,0-2.23,1.16-2.41,2.88-1.79,0,0-.07-.1-.07-.1.91,1.73.76,3.4-.57,4.78-.85.88-1.87.52-2.69-.3l.07.1Z"/>
              <path class="cls-7" d="M90.73,132.43c-.11-2.16.83-2.85,2.85-2.04.08.16.17.33.25.49-.51,2.52-.9,2.7-3.17,1.44l.07.1Z"/>
              <path class="cls-7" d="M74.06,172.32c-.12-2.18.84-2.84,2.85-2.04,0,0-.07-.1-.07-.1.46,2.55.16,2.87-2.39,2.53-.13-.13-.26-.27-.38-.4Z"/>
              <path class="cls-7" d="M71.21,174.36c-.12-2.18.84-2.84,2.85-2.04,0,0-.07-.1-.07-.1.46,2.55.16,2.87-2.39,2.53-.13-.13-.26-.27-.38-.4Z"/>
              <path class="cls-7" d="M68.37,176.39c-.12-2.18.84-2.84,2.85-2.04,0,0-.07-.1-.07-.1.46,2.55.16,2.87-2.39,2.53-.13-.13-.26-.27-.38-.4Z"/>
              <path class="cls-7" d="M65.52,178.43c-.12-2.18.84-2.84,2.85-2.04,0,0-.07-.1-.07-.1.46,2.55.16,2.87-2.39,2.53-.13-.13-.26-.27-.38-.4Z"/>
              <path class="cls-7" d="M62.67,180.47c-.12-2.18.84-2.84,2.85-2.04,0,0-.07-.1-.07-.1.46,2.55.16,2.87-2.39,2.53-.13-.13-.26-.27-.38-.4Z"/>
              <path class="cls-7" d="M93.58,130.39c-.11-2.17.84-2.85,2.85-2.04,0,0-.07-.1-.07-.1.49.98.53,1.94-.49,2.57-.87.53-1.69.17-2.35-.53l.07.1Z"/>
              <path class="cls-7" d="M59.82,182.5c-.12-2.18.84-2.84,2.85-2.04,0,0-.07-.1-.07-.1.46,2.55.16,2.87-2.39,2.53-.13-.13-.26-.27-.38-.4Z"/>
              <path class="cls-7" d="M56.97,184.54c-.11-2.17.84-2.85,2.85-2.04,0,0-.07-.1-.07-.1.49.98.53,1.94-.49,2.57-.87.53-1.69.17-2.35-.53l.07.1Z"/>
              <path class="cls-7" d="M121.58,127.51c.9.13,1.79.38,2.69.38,2.22,0,2.43,1.15,1.79,2.87-.17.1-.33.2-.5.3-4.2.21-5.23-.75-3.88-3.62l-.1.07Z"/>
              <path class="cls-7" d="M126.06,130.76c.9.13,1.79.38,2.69.38,2.22,0,2.43,1.15,1.79,2.87-.17.1-.33.2-.5.3-4.2.21-5.23-.75-3.88-3.62l-.1.07Z"/>
              <path class="cls-7" d="M136.25,145.01c1.84-.04,2.86.53,2.14,2.63-.29.85-.35,1.77-.51,2.67,0,0,.1-.07.1-.07-3.15.35-3.74-.94-2.18-4.84.15-.12.3-.25.45-.37Z"/>
              <path class="cls-7" d="M134.62,139.72c1.84-.04,2.86.53,2.14,2.63-.29.85-.35,1.77-.51,2.67,0,0,.1-.07.1-.07-3.15.35-3.74-.94-2.18-4.84.15-.12.3-.25.45-.37Z"/>
              <path class="cls-7" d="M132.58,136.87c2.18-.12,2.84.84,2.04,2.85,0,0,.1-.07.1-.07-2.55.46-2.87.16-2.54-2.39.13-.13.27-.26.4-.38Z"/>
              <path class="cls-7" d="M130.54,134.02c2.17-.11,2.85.84,2.04,2.85,0,0,.1-.07.1-.07-.98.49-1.94.53-2.57-.49-.53-.87-.17-1.69.53-2.35l-.1.07Z"/>
              <path class="cls-7" d="M58.21,192.19c-2.17.11-2.85-.84-2.04-2.85,0,0-.1.07-.1.07.98-.49,1.94-.53,2.57.49.53.87.17,1.69-.53,2.35l.1-.07Z"/>
              <path class="cls-7" d="M81.79,171.1c.11-.85.22-1.7.33-2.55,1.66.28,3.31.55,4.97.83-.28,1.66-.55,3.31-.83,4.97-.84-.17-1.68-.34-2.52-.51,0,0,.07.1.07.1-.61-1.05-1.31-2.04-2.11-2.95l.07.1Z"/>
              <path class="cls-7" d="M81.72,171c2.05.02,2.75,1,2.11,2.95-2.05-.02-2.75-1-2.11-2.95Z"/>
            </g>
          </g>
        </g>
      </g>
    </g>
  </g>
</svg>